<mxfile host="Electron" modified="2023-05-20T05:02:40.692Z" agent="Mozilla/5.0 (Windows NT 10.0; Win64; x64) AppleWebKit/537.36 (KHTML, like Gecko) draw.io/21.2.1 Chrome/112.0.5615.87 Electron/24.1.2 Safari/537.36" etag="fPpwEPSHEYFkHo71mU68" version="21.2.1" type="device">
  <diagram id="prtHgNgQTEPvFCAcTncT" name="Page-1">
    <mxGraphModel dx="1044" dy="214" grid="0" gridSize="10" guides="1" tooltips="1" connect="1" arrows="1" fold="1" page="0" pageScale="1" pageWidth="827" pageHeight="1169" background="none" math="0" shadow="0">
      <root>
        <mxCell id="0" />
        <mxCell id="1" parent="0" />
        <UserObject label="花卉识别管理系统" name="Tessa Miller" position="CFO" location="Office 1" email="me@example.com" placeholders="1" link="https://www.draw.io" id="PvTE8i9x1ibOiYrCxRd5-11">
          <mxCell style="label;image=https://cdn3.iconfinder.com/data/icons/user-avatars-1/512/users-3-128.png;whiteSpace=wrap;html=1;rounded=0;glass=0;treeMoving=1;treeFolding=1;" parent="1" vertex="1">
            <mxGeometry x="560" y="690" width="180" height="70" as="geometry" />
          </mxCell>
        </UserObject>
        <mxCell id="PvTE8i9x1ibOiYrCxRd5-12" value="" style="endArrow=blockThin;endFill=1;fontSize=11;edgeStyle=elbowEdgeStyle;elbow=vertical;rounded=1;strokeColor=#000000;" parent="1" source="PvTE8i9x1ibOiYrCxRd5-11" target="PvTE8i9x1ibOiYrCxRd5-13" edge="1">
          <mxGeometry relative="1" as="geometry" />
        </mxCell>
        <UserObject label="系统管理" name="Edward Morrison" position="Brand Manager" location="Office 2" email="me@example.com" placeholders="1" link="https://www.draw.io" id="PvTE8i9x1ibOiYrCxRd5-13">
          <mxCell style="label;image=https://cdn3.iconfinder.com/data/icons/user-avatars-1/512/users-10-3-128.png;whiteSpace=wrap;html=1;rounded=0;glass=0;treeFolding=1;treeMoving=1;" parent="1" vertex="1">
            <mxGeometry x="340" y="820" width="180" height="80" as="geometry" />
          </mxCell>
        </UserObject>
        <mxCell id="PvTE8i9x1ibOiYrCxRd5-14" value="" style="endArrow=blockThin;endFill=1;fontSize=11;edgeStyle=elbowEdgeStyle;elbow=vertical;rounded=1;strokeColor=#0f0f0f;" parent="1" source="PvTE8i9x1ibOiYrCxRd5-11" target="PvTE8i9x1ibOiYrCxRd5-15" edge="1">
          <mxGeometry relative="1" as="geometry" />
        </mxCell>
        <UserObject label="小程序管理" name="Alison Donovan" position="System Admin" location="Office 3" email="me@example.com" placeholders="1" link="https://www.draw.io" id="PvTE8i9x1ibOiYrCxRd5-15">
          <mxCell style="label;image=https://cdn3.iconfinder.com/data/icons/user-avatars-1/512/users-2-128.png;whiteSpace=wrap;html=1;rounded=0;glass=0;" parent="1" vertex="1">
            <mxGeometry x="800" y="820" width="180" height="80" as="geometry" />
          </mxCell>
        </UserObject>
        <mxCell id="PvTE8i9x1ibOiYrCxRd5-16" value="" style="endArrow=blockThin;endFill=1;fontSize=11;edgeStyle=elbowEdgeStyle;elbow=vertical;rounded=0;" parent="1" source="PvTE8i9x1ibOiYrCxRd5-13" target="PvTE8i9x1ibOiYrCxRd5-17" edge="1">
          <mxGeometry relative="1" as="geometry">
            <mxPoint x="660" y="830" as="sourcePoint" />
          </mxGeometry>
        </mxCell>
        <UserObject label="角色管理" name="Edward Morrison" position="Brand Manager" location="Office 2" email="me@example.com" placeholders="1" link="https://www.draw.io" id="PvTE8i9x1ibOiYrCxRd5-17">
          <mxCell style="label;image=https://cdn3.iconfinder.com/data/icons/user-avatars-1/512/users-10-3-128.png;whiteSpace=wrap;html=1;rounded=0;glass=0;treeFolding=1;treeMoving=1;" parent="1" vertex="1">
            <mxGeometry x="340" y="940" width="180" height="80" as="geometry" />
          </mxCell>
        </UserObject>
        <mxCell id="PvTE8i9x1ibOiYrCxRd5-18" value="" style="endArrow=blockThin;endFill=1;fontSize=11;edgeStyle=elbowEdgeStyle;elbow=vertical;rounded=1;strokeColor=#000000;" parent="1" source="PvTE8i9x1ibOiYrCxRd5-13" target="PvTE8i9x1ibOiYrCxRd5-19" edge="1">
          <mxGeometry relative="1" as="geometry">
            <mxPoint x="440" y="970" as="sourcePoint" />
          </mxGeometry>
        </mxCell>
        <UserObject label="菜单管理" name="Edward Morrison" position="Brand Manager" location="Office 2" email="me@example.com" placeholders="1" link="https://www.draw.io" id="PvTE8i9x1ibOiYrCxRd5-19">
          <mxCell style="label;image=https://cdn3.iconfinder.com/data/icons/user-avatars-1/512/users-10-3-128.png;whiteSpace=wrap;html=1;rounded=0;glass=0;treeFolding=1;treeMoving=1;" parent="1" vertex="1">
            <mxGeometry x="150" y="940" width="180" height="80" as="geometry" />
          </mxCell>
        </UserObject>
        <mxCell id="PvTE8i9x1ibOiYrCxRd5-20" value="" style="endArrow=blockThin;endFill=1;fontSize=11;edgeStyle=elbowEdgeStyle;elbow=vertical;rounded=1;strokeColor=#0a0a0a;" parent="1" source="PvTE8i9x1ibOiYrCxRd5-13" target="PvTE8i9x1ibOiYrCxRd5-21" edge="1">
          <mxGeometry relative="1" as="geometry">
            <mxPoint x="440" y="970" as="sourcePoint" />
          </mxGeometry>
        </mxCell>
        <UserObject label="用户管理" name="Edward Morrison" position="Brand Manager" location="Office 2" email="me@example.com" placeholders="1" link="https://www.draw.io" id="PvTE8i9x1ibOiYrCxRd5-21">
          <mxCell style="label;image=https://cdn3.iconfinder.com/data/icons/user-avatars-1/512/users-10-3-128.png;whiteSpace=wrap;html=1;rounded=0;glass=0;treeFolding=1;treeMoving=1;" parent="1" vertex="1">
            <mxGeometry x="530" y="940" width="180" height="80" as="geometry" />
          </mxCell>
        </UserObject>
        <mxCell id="PvTE8i9x1ibOiYrCxRd5-22" value="" style="endArrow=blockThin;endFill=1;fontSize=11;edgeStyle=elbowEdgeStyle;elbow=vertical;rounded=1;strokeColor=#000000;" parent="1" source="PvTE8i9x1ibOiYrCxRd5-15" target="PvTE8i9x1ibOiYrCxRd5-23" edge="1">
          <mxGeometry relative="1" as="geometry">
            <mxPoint x="890" y="970" as="sourcePoint" />
          </mxGeometry>
        </mxCell>
        <UserObject label="微信用户管理" name="Alison Donovan" position="System Admin" location="Office 3" email="me@example.com" placeholders="1" link="https://www.draw.io" id="PvTE8i9x1ibOiYrCxRd5-23">
          <mxCell style="label;image=https://cdn3.iconfinder.com/data/icons/user-avatars-1/512/users-2-128.png;whiteSpace=wrap;html=1;rounded=0;glass=0;" parent="1" vertex="1">
            <mxGeometry x="734" y="940" width="180" height="80" as="geometry" />
          </mxCell>
        </UserObject>
        <UserObject label="取样记录管理" name="Alison Donovan" position="System Admin" location="Office 3" email="me@example.com" placeholders="1" link="https://www.draw.io" id="PvTE8i9x1ibOiYrCxRd5-24">
          <mxCell style="label;image=https://cdn3.iconfinder.com/data/icons/user-avatars-1/512/users-2-128.png;whiteSpace=wrap;html=1;rounded=0;glass=0;" parent="1" vertex="1">
            <mxGeometry x="940" y="940" width="180" height="80" as="geometry" />
          </mxCell>
        </UserObject>
        <mxCell id="PvTE8i9x1ibOiYrCxRd5-25" value="" style="endArrow=blockThin;endFill=1;fontSize=11;edgeStyle=elbowEdgeStyle;elbow=vertical;rounded=1;strokeColor=#000000;" parent="1" source="PvTE8i9x1ibOiYrCxRd5-15" target="PvTE8i9x1ibOiYrCxRd5-24" edge="1">
          <mxGeometry relative="1" as="geometry">
            <mxPoint x="690" y="830" as="sourcePoint" />
          </mxGeometry>
        </mxCell>
        <mxCell id="m0w826r3eti6iYqOU-R6-1" value="&lt;font style=&quot;font-size: 17px;&quot;&gt;添加菜单&lt;/font&gt;" style="rounded=0;whiteSpace=wrap;html=1;direction=south;" vertex="1" parent="1">
          <mxGeometry x="150" y="1049" width="42" height="120" as="geometry" />
        </mxCell>
        <mxCell id="m0w826r3eti6iYqOU-R6-12" value="&lt;font style=&quot;font-size: 17px;&quot;&gt;修改菜单&lt;/font&gt;" style="rounded=0;whiteSpace=wrap;html=1;direction=south;" vertex="1" parent="1">
          <mxGeometry x="211" y="1049" width="42" height="120" as="geometry" />
        </mxCell>
        <mxCell id="m0w826r3eti6iYqOU-R6-13" value="&lt;font style=&quot;font-size: 17px;&quot;&gt;删除菜单&lt;/font&gt;" style="rounded=0;whiteSpace=wrap;html=1;direction=south;" vertex="1" parent="1">
          <mxGeometry x="280" y="1049" width="42" height="120" as="geometry" />
        </mxCell>
        <mxCell id="m0w826r3eti6iYqOU-R6-14" value="&lt;font style=&quot;font-size: 17px;&quot;&gt;添加角色&lt;/font&gt;" style="rounded=0;whiteSpace=wrap;html=1;direction=south;" vertex="1" parent="1">
          <mxGeometry x="344" y="1049" width="42" height="120" as="geometry" />
        </mxCell>
        <mxCell id="m0w826r3eti6iYqOU-R6-15" value="&lt;font style=&quot;font-size: 17px;&quot;&gt;修改角色&lt;/font&gt;" style="rounded=0;whiteSpace=wrap;html=1;direction=south;" vertex="1" parent="1">
          <mxGeometry x="405" y="1049" width="42" height="120" as="geometry" />
        </mxCell>
        <mxCell id="m0w826r3eti6iYqOU-R6-16" value="&lt;font style=&quot;font-size: 17px;&quot;&gt;删除角色&lt;/font&gt;" style="rounded=0;whiteSpace=wrap;html=1;direction=south;" vertex="1" parent="1">
          <mxGeometry x="474" y="1049" width="42" height="120" as="geometry" />
        </mxCell>
        <mxCell id="m0w826r3eti6iYqOU-R6-17" value="&lt;font style=&quot;font-size: 17px;&quot;&gt;添加用户&lt;/font&gt;" style="rounded=0;whiteSpace=wrap;html=1;direction=south;" vertex="1" parent="1">
          <mxGeometry x="534" y="1049" width="42" height="120" as="geometry" />
        </mxCell>
        <mxCell id="m0w826r3eti6iYqOU-R6-18" value="&lt;font style=&quot;font-size: 17px;&quot;&gt;修改用户&lt;/font&gt;" style="rounded=0;whiteSpace=wrap;html=1;direction=south;" vertex="1" parent="1">
          <mxGeometry x="595" y="1049" width="42" height="120" as="geometry" />
        </mxCell>
        <mxCell id="m0w826r3eti6iYqOU-R6-19" value="&lt;font style=&quot;font-size: 17px;&quot;&gt;删除用户&lt;/font&gt;" style="rounded=0;whiteSpace=wrap;html=1;direction=south;" vertex="1" parent="1">
          <mxGeometry x="664" y="1049" width="42" height="120" as="geometry" />
        </mxCell>
        <mxCell id="m0w826r3eti6iYqOU-R6-20" value="&lt;font style=&quot;font-size: 17px;&quot;&gt;添加微信用户&lt;/font&gt;" style="rounded=0;whiteSpace=wrap;html=1;direction=south;" vertex="1" parent="1">
          <mxGeometry x="738" y="1049" width="42" height="120" as="geometry" />
        </mxCell>
        <mxCell id="m0w826r3eti6iYqOU-R6-21" value="&lt;font style=&quot;font-size: 17px;&quot;&gt;修改微信用户&lt;/font&gt;" style="rounded=0;whiteSpace=wrap;html=1;direction=south;" vertex="1" parent="1">
          <mxGeometry x="799" y="1049" width="42" height="120" as="geometry" />
        </mxCell>
        <mxCell id="m0w826r3eti6iYqOU-R6-22" value="&lt;font style=&quot;font-size: 17px;&quot;&gt;删除微信用户&lt;/font&gt;" style="rounded=0;whiteSpace=wrap;html=1;direction=south;" vertex="1" parent="1">
          <mxGeometry x="868" y="1049" width="42" height="120" as="geometry" />
        </mxCell>
        <mxCell id="m0w826r3eti6iYqOU-R6-23" value="&lt;font style=&quot;font-size: 17px;&quot;&gt;添加取样记录&lt;/font&gt;" style="rounded=0;whiteSpace=wrap;html=1;direction=south;" vertex="1" parent="1">
          <mxGeometry x="944" y="1049" width="42" height="120" as="geometry" />
        </mxCell>
        <mxCell id="m0w826r3eti6iYqOU-R6-24" value="&lt;font style=&quot;font-size: 17px;&quot;&gt;修改取样记录&lt;/font&gt;" style="rounded=0;whiteSpace=wrap;html=1;direction=south;" vertex="1" parent="1">
          <mxGeometry x="1005" y="1049" width="42" height="120" as="geometry" />
        </mxCell>
        <mxCell id="m0w826r3eti6iYqOU-R6-25" value="&lt;font style=&quot;font-size: 17px;&quot;&gt;删除取样记录&lt;/font&gt;" style="rounded=0;whiteSpace=wrap;html=1;direction=south;" vertex="1" parent="1">
          <mxGeometry x="1074" y="1049" width="42" height="120" as="geometry" />
        </mxCell>
        <mxCell id="m0w826r3eti6iYqOU-R6-26" value="" style="endArrow=none;html=1;rounded=0;exitX=0;exitY=0.5;exitDx=0;exitDy=0;entryX=0.25;entryY=1;entryDx=0;entryDy=0;" edge="1" parent="1" source="m0w826r3eti6iYqOU-R6-1" target="PvTE8i9x1ibOiYrCxRd5-19">
          <mxGeometry width="50" height="50" relative="1" as="geometry">
            <mxPoint x="610" y="995" as="sourcePoint" />
            <mxPoint x="193" y="1030" as="targetPoint" />
          </mxGeometry>
        </mxCell>
        <mxCell id="m0w826r3eti6iYqOU-R6-27" value="" style="endArrow=none;html=1;rounded=0;entryX=0.464;entryY=1.008;entryDx=0;entryDy=0;entryPerimeter=0;exitX=0;exitY=0.5;exitDx=0;exitDy=0;" edge="1" parent="1" source="m0w826r3eti6iYqOU-R6-12" target="PvTE8i9x1ibOiYrCxRd5-19">
          <mxGeometry width="50" height="50" relative="1" as="geometry">
            <mxPoint x="610" y="995" as="sourcePoint" />
            <mxPoint x="660" y="945" as="targetPoint" />
          </mxGeometry>
        </mxCell>
        <mxCell id="m0w826r3eti6iYqOU-R6-28" value="" style="endArrow=none;html=1;rounded=0;exitX=0.75;exitY=1;exitDx=0;exitDy=0;entryX=0;entryY=0.5;entryDx=0;entryDy=0;" edge="1" parent="1" source="PvTE8i9x1ibOiYrCxRd5-19" target="m0w826r3eti6iYqOU-R6-13">
          <mxGeometry width="50" height="50" relative="1" as="geometry">
            <mxPoint x="610" y="995" as="sourcePoint" />
            <mxPoint x="660" y="945" as="targetPoint" />
          </mxGeometry>
        </mxCell>
        <mxCell id="m0w826r3eti6iYqOU-R6-35" value="" style="endArrow=none;html=1;rounded=0;exitX=0;exitY=0.5;exitDx=0;exitDy=0;entryX=0.25;entryY=1;entryDx=0;entryDy=0;" edge="1" parent="1" source="m0w826r3eti6iYqOU-R6-14" target="PvTE8i9x1ibOiYrCxRd5-17">
          <mxGeometry width="50" height="50" relative="1" as="geometry">
            <mxPoint x="427" y="1058" as="sourcePoint" />
            <mxPoint x="451" y="1029" as="targetPoint" />
          </mxGeometry>
        </mxCell>
        <mxCell id="m0w826r3eti6iYqOU-R6-36" value="" style="endArrow=none;html=1;rounded=0;entryX=0.5;entryY=1;entryDx=0;entryDy=0;exitX=0;exitY=0.5;exitDx=0;exitDy=0;" edge="1" parent="1" source="m0w826r3eti6iYqOU-R6-15" target="PvTE8i9x1ibOiYrCxRd5-17">
          <mxGeometry width="50" height="50" relative="1" as="geometry">
            <mxPoint x="488" y="1058" as="sourcePoint" />
            <mxPoint x="490" y="1030" as="targetPoint" />
          </mxGeometry>
        </mxCell>
        <mxCell id="m0w826r3eti6iYqOU-R6-37" value="" style="endArrow=none;html=1;rounded=0;exitX=0.75;exitY=1;exitDx=0;exitDy=0;entryX=0;entryY=0.5;entryDx=0;entryDy=0;" edge="1" parent="1" source="PvTE8i9x1ibOiYrCxRd5-17" target="m0w826r3eti6iYqOU-R6-16">
          <mxGeometry width="50" height="50" relative="1" as="geometry">
            <mxPoint x="541" y="1029" as="sourcePoint" />
            <mxPoint x="557" y="1058" as="targetPoint" />
          </mxGeometry>
        </mxCell>
        <mxCell id="m0w826r3eti6iYqOU-R6-41" value="" style="endArrow=none;html=1;rounded=0;exitX=0;exitY=0.5;exitDx=0;exitDy=0;entryX=0.25;entryY=1;entryDx=0;entryDy=0;" edge="1" parent="1" source="m0w826r3eti6iYqOU-R6-17" target="PvTE8i9x1ibOiYrCxRd5-21">
          <mxGeometry width="50" height="50" relative="1" as="geometry">
            <mxPoint x="590" y="1062" as="sourcePoint" />
            <mxPoint x="614" y="1033" as="targetPoint" />
          </mxGeometry>
        </mxCell>
        <mxCell id="m0w826r3eti6iYqOU-R6-42" value="" style="endArrow=none;html=1;rounded=0;entryX=0.5;entryY=1;entryDx=0;entryDy=0;exitX=0;exitY=0.5;exitDx=0;exitDy=0;" edge="1" parent="1" source="m0w826r3eti6iYqOU-R6-18" target="PvTE8i9x1ibOiYrCxRd5-21">
          <mxGeometry width="50" height="50" relative="1" as="geometry">
            <mxPoint x="651" y="1062" as="sourcePoint" />
            <mxPoint x="653" y="1034" as="targetPoint" />
          </mxGeometry>
        </mxCell>
        <mxCell id="m0w826r3eti6iYqOU-R6-43" value="" style="endArrow=none;html=1;rounded=0;exitX=0.75;exitY=1;exitDx=0;exitDy=0;entryX=0;entryY=0.5;entryDx=0;entryDy=0;" edge="1" parent="1" source="PvTE8i9x1ibOiYrCxRd5-21" target="m0w826r3eti6iYqOU-R6-19">
          <mxGeometry width="50" height="50" relative="1" as="geometry">
            <mxPoint x="704" y="1033" as="sourcePoint" />
            <mxPoint x="720" y="1062" as="targetPoint" />
          </mxGeometry>
        </mxCell>
        <mxCell id="m0w826r3eti6iYqOU-R6-44" value="" style="endArrow=none;html=1;rounded=0;exitX=0;exitY=0.5;exitDx=0;exitDy=0;entryX=0.25;entryY=1;entryDx=0;entryDy=0;" edge="1" parent="1" source="m0w826r3eti6iYqOU-R6-20" target="PvTE8i9x1ibOiYrCxRd5-23">
          <mxGeometry width="50" height="50" relative="1" as="geometry">
            <mxPoint x="808" y="1057" as="sourcePoint" />
            <mxPoint x="832" y="1028" as="targetPoint" />
          </mxGeometry>
        </mxCell>
        <mxCell id="m0w826r3eti6iYqOU-R6-45" value="" style="endArrow=none;html=1;rounded=0;entryX=0.5;entryY=1;entryDx=0;entryDy=0;exitX=0;exitY=0.5;exitDx=0;exitDy=0;" edge="1" parent="1" source="m0w826r3eti6iYqOU-R6-21" target="PvTE8i9x1ibOiYrCxRd5-23">
          <mxGeometry width="50" height="50" relative="1" as="geometry">
            <mxPoint x="869" y="1057" as="sourcePoint" />
            <mxPoint x="871" y="1029" as="targetPoint" />
          </mxGeometry>
        </mxCell>
        <mxCell id="m0w826r3eti6iYqOU-R6-46" value="" style="endArrow=none;html=1;rounded=0;exitX=0.75;exitY=1;exitDx=0;exitDy=0;entryX=0;entryY=0.5;entryDx=0;entryDy=0;" edge="1" parent="1" source="PvTE8i9x1ibOiYrCxRd5-23" target="m0w826r3eti6iYqOU-R6-22">
          <mxGeometry width="50" height="50" relative="1" as="geometry">
            <mxPoint x="922" y="1028" as="sourcePoint" />
            <mxPoint x="938" y="1057" as="targetPoint" />
          </mxGeometry>
        </mxCell>
        <mxCell id="m0w826r3eti6iYqOU-R6-47" value="" style="endArrow=none;html=1;rounded=0;exitX=0;exitY=0.5;exitDx=0;exitDy=0;entryX=0.25;entryY=1;entryDx=0;entryDy=0;" edge="1" parent="1" source="m0w826r3eti6iYqOU-R6-23" target="PvTE8i9x1ibOiYrCxRd5-24">
          <mxGeometry width="50" height="50" relative="1" as="geometry">
            <mxPoint x="1051" y="1061" as="sourcePoint" />
            <mxPoint x="1075" y="1032" as="targetPoint" />
          </mxGeometry>
        </mxCell>
        <mxCell id="m0w826r3eti6iYqOU-R6-48" value="" style="endArrow=none;html=1;rounded=0;entryX=0.5;entryY=1;entryDx=0;entryDy=0;exitX=0;exitY=0.5;exitDx=0;exitDy=0;" edge="1" parent="1" source="m0w826r3eti6iYqOU-R6-24" target="PvTE8i9x1ibOiYrCxRd5-24">
          <mxGeometry width="50" height="50" relative="1" as="geometry">
            <mxPoint x="1112" y="1061" as="sourcePoint" />
            <mxPoint x="1114" y="1033" as="targetPoint" />
          </mxGeometry>
        </mxCell>
        <mxCell id="m0w826r3eti6iYqOU-R6-49" value="" style="endArrow=none;html=1;rounded=0;exitX=0.822;exitY=1.008;exitDx=0;exitDy=0;entryX=0;entryY=0.5;entryDx=0;entryDy=0;exitPerimeter=0;" edge="1" parent="1" source="PvTE8i9x1ibOiYrCxRd5-24" target="m0w826r3eti6iYqOU-R6-25">
          <mxGeometry width="50" height="50" relative="1" as="geometry">
            <mxPoint x="1165" y="1032" as="sourcePoint" />
            <mxPoint x="1181" y="1061" as="targetPoint" />
          </mxGeometry>
        </mxCell>
      </root>
    </mxGraphModel>
  </diagram>
</mxfile>
